<svg xmlns="http://www.w3.org/2000/svg" viewBox="0 0 600 450" fill="none">
  <rect width="600" height="450" fill="#0d1117"/>
  <rect x="40" y="40" width="520" height="370" rx="12" fill="#111827" stroke="#EC4899" stroke-width="1"/>
  <rect x="60" y="70" width="480" height="50" rx="8" fill="#1a1a2e"/>
  <circle cx="85" cy="95" r="8" fill="#EC4899" opacity="0.6"/>
  <circle cx="110" cy="95" r="8" fill="#7C3AED" opacity="0.5"/>
  <circle cx="135" cy="95" r="8" fill="#ffffff" opacity="0.2"/>
  <rect x="60" y="140" width="300" height="250" rx="8" fill="#ffffff" opacity="0.03"/>
  <rect x="80" y="160" width="140" height="12" rx="4" fill="#EC4899" opacity="0.5"/>
  <rect x="80" y="185" width="200" height="8" rx="3" fill="#ffffff" opacity="0.12"/>
  <rect x="80" y="205" width="180" height="8" rx="3" fill="#ffffff" opacity="0.08"/>
  <rect x="80" y="240" width="120" height="36" rx="18" fill="#7C3AED" opacity="0.6"/>
  <rect x="88" y="251" width="104" height="14" rx="4" fill="#ffffff" opacity="0.7"/>
  <rect x="380" y="140" width="160" height="250" rx="8" fill="#7C3AED" opacity="0.1"/>
  <rect x="395" y="160" width="130" height="100" rx="6" fill="#EC4899" opacity="0.12"/>
  <rect x="395" y="280" width="60" height="8" rx="2" fill="#ffffff" opacity="0.15"/>
  <rect x="395" y="300" width="80" height="6" rx="2" fill="#ffffff" opacity="0.08"/>
</svg>